<svg id="Layer_1" data-name="Layer 1" xmlns="http://www.w3.org/2000/svg" viewBox="0 0 1083.41 1094.03"><defs><style>.cls-1{fill:none;stroke:#ffffff;stroke-miterlimit:10;stroke-width:45px;}.cls-2{fill:#ffffff;}</style></defs><polygon class="cls-1" points="31.48 787.89 305.62 1062.03 418.8 946.34 144.66 669.68 31.48 787.89"/><path class="cls-1" d="M932.49,813.46l109.41-59.1s71.68-164.74,179.83-65.39c0,0-81.74,201.2-289.24,342H591.7s-25.78-1.57-39.61,26.09L365.34,870.05l93.06-93s47.79-45.28,85.51-45.28H652.06s21.38-5,44,12.58l50.3,36.47h133.3s35.36.71,53.05,26c5.89,8.43,9.82,19.59,9.82,34.37,0,0,1.26,52.82-55.33,55.33L694.82,894" transform="translate(-165.04 -145.35)"/><polygon class="cls-2" points="141.83 812.54 185.75 855.17 212.88 826.75 170.25 784.12 141.83 812.54"/><path class="cls-1" d="M876.45,168.22,643.19,262.5a5.09,5.09,0,0,0-3.13,4l-35,249.15a5.08,5.08,0,0,0,1.9,4.71L805.27,675.24a5.07,5.07,0,0,0,5,.71l233.26-94.29a5.06,5.06,0,0,0,3.12-4l35-249.15a5.09,5.09,0,0,0-1.91-4.71L881.48,168.93A5.07,5.07,0,0,0,876.45,168.22Z" transform="translate(-165.04 -145.35)"/><polyline class="cls-1" points="697.34 105.99 673.76 276.7 522.86 328.58"/><line class="cls-1" x1="811.46" y1="386.11" x2="673.76" y2="276.7"/></svg>